# xmcd CD database file
#
# Track frame offsets:
#	150
#	48944
#	85658
#	120840
#	154315
#	183965
#	216784
#
# Disc length: 3466 seconds
#
# Revision: 0
# Processed by: cddbd v1.5.2PL0 Copyright (c) Steve Scherf et al.
# Submitted via: CDex 1.70beta3
#
DISCID=4e0d8807
DTITLE=Takayanagi Masayuki - Uchida Osamu Jazz Collection - Artists Vol.01
DYEAR=1900
DGENRE=Jazz
TTITLE0=Portrait
TTITLE1=Improvisation
TTITLE2=All the Things You are
TTITLE3=Peace
TTITLE4=Israel
TTITLE5=Tokyo Dating
TTITLE6=One for Jo-Jo
EXTD=
EXTT0=
EXTT1=
EXTT2=
EXTT3=
EXTT4=
EXTT5=
EXTT6=
PLAYORDER=
